<?xml version="1.0" encoding="utf-8"?>
<!-- Generator: Adobe Illustrator 25.2.0, SVG Export Plug-In . SVG Version: 6.00 Build 0)  -->
<svg version="1.1" id="Capa_1" xmlns="http://www.w3.org/2000/svg" xmlns:xlink="http://www.w3.org/1999/xlink" x="0px" y="0px"
	 viewBox="0 0 409.6 409.6" style="enable-background:new 0 0 409.6 409.6;" xml:space="preserve">
<style type="text/css">
	.st0{fill:#261e1e;}
</style>
<g>
	<g>
		<path class="st0" d="M382.3,81.9h-355C12.2,81.9,0,94.2,0,109.2s12.2,27.3,27.3,27.3h355c15,0,27.3-12.2,27.3-27.3
			S397.4,81.9,382.3,81.9z M382.3,122.9h-355c-7.5,0-13.6-6.1-13.6-13.7c0-7.5,6.1-13.7,13.6-13.7h355c7.5,0,13.6,6.1,13.6,13.7
			C395.9,116.8,389.8,122.9,382.3,122.9z"/>
	</g>
</g>
<g>
	<g>
		<path class="st0" d="M382.3,177.5h-355c-15,0-27.3,12.3-27.3,27.3s12.2,27.3,27.3,27.3h355c15,0,27.3-12.2,27.3-27.3
			S397.4,177.5,382.3,177.5z M382.3,218.5h-355c-7.5,0-13.6-6.1-13.6-13.7s6.1-13.7,13.6-13.7h355c7.5,0,13.6,6.1,13.6,13.7
			C395.9,212.3,389.8,218.5,382.3,218.5z"/>
	</g>
</g>
<g>
	<g>
		<path class="st0" d="M382.3,273.1h-355c-15,0-27.3,12.2-27.3,27.3s12.2,27.3,27.3,27.3h355c15,0,27.3-12.2,27.3-27.3
			C409.6,285.3,397.4,273.1,382.3,273.1z M382.3,314h-355c-7.5,0-13.6-6.1-13.6-13.7c0-7.5,6.1-13.7,13.6-13.7h355
			c7.5,0,13.6,6.1,13.6,13.7C395.9,307.9,389.8,314,382.3,314z"/>
	</g>
</g>
</svg>
