<?xml version="1.0" encoding="utf-8"?>
<!-- Generator: Adobe Illustrator 25.2.1, SVG Export Plug-In . SVG Version: 6.00 Build 0)  -->
<svg version="1.1" id="Layer_1" xmlns="http://www.w3.org/2000/svg" xmlns:xlink="http://www.w3.org/1999/xlink" x="0px" y="0px"
	 viewBox="0 0 200 200" style="enable-background:new 0 0 200 200;" xml:space="preserve">
<style type="text/css">
	.st0{fill:#007BFF;}
	.st1{fill:#FFFFFF;}
</style>
<path class="st0" d="M192.8,99.6c0,51.2-41.5,92.6-92.6,92.6S7.6,150.8,7.6,99.6C7.6,48.5,49,7,100.2,7
	C151.3,7,192.8,48.5,192.8,99.6"/>
<path class="st1" d="M145.7,97.3c1.8,5.6-4,8.8-8.1,11.4c-4.4,2.8-8.9,4.6-13.9,6.2c-9.3,3-19,4.9-28.1,8.8
	c-7.4,3.2-14.5,7.8-17.4,15.7c-1.9,5.3,0.1,11,4.6,14.2c10.2,7.2,25.9,3.4,32.4-6.9c4.9-7.9,3-18.1,0.2-26.3
	C111.6,109,105,98.8,99.8,88.2c-4.5-9.1-10.6-22.2-7.9-32.5c1.2-4.5,5.9-7.6,10.3-7.9c6.4-0.4,7.1,5.8,6.4,10.7
	c-1.8,12-13.1,22.8-24.5,25.9c-8.3,2.2-21.5,1-24.1-8.8c-1-3.6-6.5-2.1-5.5,1.5c4.8,17.9,29.4,15.8,41.7,8
	c9.1-5.8,16.5-15.6,18.1-26.4c1.1-7.6-1.8-15.8-10.4-16.5c-7.9-0.6-15,4.7-17.6,12c-3.2,9,1.7,20.6,5,28.9
	c4.2,10.4,10.1,19.9,14.9,29.9c4.3,8.9,9.4,21.1,4.1,30.6c-4.1,7.4-14.4,9.2-21.8,6.4c-10.8-4-1.8-15,4.2-18.6
	c11.1-6.7,24.8-8.2,36.9-12.6c9.2-3.3,25.7-11,21.7-23.2C150.1,92.3,144.6,93.8,145.7,97.3"/>
</svg>
