<?xml version="1.0" encoding="utf-8"?>
<!-- Generator: Adobe Illustrator 25.2.0, SVG Export Plug-In . SVG Version: 6.00 Build 0)  -->
<svg version="1.1" id="Layer_1" xmlns="http://www.w3.org/2000/svg" xmlns:xlink="http://www.w3.org/1999/xlink" fill="#61dafb" x="0px" y="0px"
	 viewBox="0 0 55 14" style="enable-background:new 0 0 55 14;" xml:space="preserve">
<g>
	<path d="M5.3,9.9L1.2,7.2C1.1,7.1,1,7,0.9,6.9C0.9,6.8,0.8,6.7,0.8,6.6V6.3c0-0.1,0-0.2,0.1-0.3C1,6,1.1,5.9,1.2,5.8L5.3,3
		C5.3,3,5.4,2.9,5.5,2.9c0.1,0,0.1,0,0.2,0.1s0.1,0.1,0.1,0.2v0.9c0,0.1,0,0.2-0.1,0.2c0,0.1-0.1,0.1-0.2,0.2L2.5,6.5l2.9,1.9
		c0.1,0.1,0.2,0.1,0.2,0.2c0,0.1,0.1,0.1,0.1,0.2v0.9c0,0.1,0,0.1-0.1,0.2c0,0-0.1,0.1-0.2,0.1C5.4,10,5.3,10,5.3,9.9z"/>
	<path d="M8.5,10.5C8,10.3,7.6,10,7.4,9.6C7.1,9.3,7,8.9,6.9,8.5c0-0.1,0-0.1,0.1-0.2s0.1-0.1,0.2-0.1h1.1c0.1,0,0.2,0,0.2,0.1
		c0.1,0,0.1,0.1,0.2,0.2C8.7,8.7,8.9,9,9.2,9.2c0.3,0.2,0.7,0.3,1.2,0.3c0.6,0,1-0.1,1.3-0.3c0.3-0.2,0.4-0.4,0.4-0.8
		c0-0.2-0.1-0.4-0.2-0.5s-0.4-0.3-0.7-0.4s-0.7-0.2-1.3-0.4C8.9,6.8,8.3,6.5,7.8,6.2S7.2,5.3,7.2,4.6c0-0.5,0.1-0.9,0.4-1.2
		C7.8,3,8.2,2.7,8.6,2.5s1-0.3,1.7-0.3c0.7,0,1.2,0.1,1.7,0.3c0.5,0.2,0.9,0.5,1.1,0.9c0.3,0.3,0.4,0.7,0.4,1c0,0.1,0,0.1-0.1,0.2
		c0,0.1-0.1,0.1-0.2,0.1h-1.1c-0.2,0-0.3-0.1-0.4-0.2c0-0.3-0.2-0.5-0.5-0.6c-0.3-0.2-0.6-0.3-1-0.3c-0.4,0-0.8,0.1-1,0.3
		S8.9,4.2,8.9,4.6c0,0.2,0.1,0.4,0.2,0.5s0.3,0.3,0.6,0.4s0.7,0.2,1.2,0.4c0.7,0.2,1.3,0.3,1.7,0.5c0.4,0.2,0.7,0.5,0.9,0.8
		c0.2,0.3,0.3,0.7,0.3,1.2c0,0.5-0.1,1-0.4,1.4s-0.7,0.7-1.2,0.9c-0.5,0.2-1.1,0.3-1.8,0.3C9.7,10.8,9,10.7,8.5,10.5z"/>
	<path d="M16.2,10.1c-0.4-0.4-0.6-0.9-0.6-1.7V5.7h-0.9c-0.1,0-0.1,0-0.2-0.1c-0.1-0.1-0.1-0.1-0.1-0.2V4.8c0-0.1,0-0.1,0.1-0.2
		c0.1-0.1,0.1-0.1,0.2-0.1h0.9v-2c0-0.1,0-0.2,0.1-0.2c0.1-0.1,0.1-0.1,0.2-0.1h1c0.1,0,0.2,0,0.2,0.1s0.1,0.1,0.1,0.2v2h1.5
		c0.1,0,0.1,0,0.2,0.1C19,4.6,19,4.7,19,4.8v0.7c0,0.1,0,0.1-0.1,0.2c-0.1,0.1-0.1,0.1-0.2,0.1h-1.5v2.6c0,0.3,0.1,0.6,0.2,0.8
		s0.3,0.3,0.6,0.3h0.8c0.1,0,0.2,0,0.2,0.1c0.1,0.1,0.1,0.1,0.1,0.2v0.8c0,0.1,0,0.1-0.1,0.2c-0.1,0.1-0.1,0.1-0.2,0.1h-1
		C17.1,10.7,16.6,10.5,16.2,10.1z"/>
	<path d="M20.9,10.6c-0.3-0.2-0.6-0.4-0.8-0.7S19.8,9.3,19.8,9c0-0.5,0.2-1,0.7-1.3c0.4-0.3,1-0.6,1.8-0.7l1.6-0.2V6.5
		c0-0.3-0.1-0.6-0.3-0.8c-0.2-0.2-0.5-0.3-0.8-0.3c-0.3,0-0.5,0-0.6,0.1c-0.2,0.1-0.3,0.2-0.4,0.3c-0.1,0.1-0.2,0.2-0.2,0.2
		c0,0.1-0.1,0.1-0.2,0.1h-0.9c-0.1,0-0.1,0-0.2-0.1c-0.1,0-0.1-0.1-0.1-0.2c0-0.2,0.1-0.4,0.3-0.7C20.7,5,21,4.8,21.4,4.6
		c0.4-0.2,0.9-0.3,1.5-0.3c0.9,0,1.6,0.2,2.1,0.6c0.4,0.4,0.6,1,0.6,1.7v3.8c0,0.1,0,0.1-0.1,0.2c-0.1,0.1-0.1,0.1-0.2,0.1h-1
		c-0.1,0-0.1,0-0.2-0.1c-0.1-0.1-0.1-0.1-0.1-0.2V9.9c-0.2,0.3-0.4,0.5-0.7,0.6c-0.3,0.2-0.7,0.2-1.2,0.2
		C21.6,10.8,21.2,10.7,20.9,10.6z M23.5,9.2C23.8,9,23.9,8.5,23.9,8V7.8l-1.2,0.2c-0.9,0.1-1.4,0.5-1.4,0.9c0,0.3,0.1,0.5,0.3,0.6
		c0.2,0.1,0.5,0.2,0.8,0.2C22.8,9.7,23.2,9.5,23.5,9.2z"/>
	<path d="M27.6,10.1c-0.5-0.5-0.8-1.2-0.8-2l0-0.5l0-0.5c0-0.9,0.3-1.5,0.8-2c0.5-0.5,1.2-0.7,2.1-0.7c0.6,0,1.2,0.1,1.6,0.3
		c0.4,0.2,0.8,0.5,1,0.8c0.2,0.3,0.3,0.6,0.3,0.9c0,0.1,0,0.1-0.1,0.2c-0.1,0.1-0.1,0.1-0.2,0.1h-1.1c-0.1,0-0.2,0-0.2-0.1
		S31,6.6,31,6.5c-0.1-0.3-0.3-0.5-0.5-0.7c-0.2-0.1-0.4-0.2-0.8-0.2c-0.4,0-0.7,0.1-1,0.4c-0.2,0.3-0.3,0.6-0.4,1.2l0,0.4l0,0.4
		c0,1,0.5,1.6,1.3,1.6c0.3,0,0.6-0.1,0.8-0.2C30.7,9.2,30.9,9,31,8.7c0-0.1,0.1-0.2,0.1-0.2c0,0,0.1-0.1,0.2-0.1h1.1
		c0.1,0,0.1,0,0.2,0.1c0.1,0.1,0.1,0.1,0.1,0.2c0,0.3-0.1,0.6-0.3,0.9s-0.5,0.6-1,0.8c-0.4,0.2-1,0.3-1.6,0.3
		C28.9,10.8,28.2,10.6,27.6,10.1z"/>
	<path d="M34,10.6c-0.1-0.1-0.1-0.1-0.1-0.2V2.5c0-0.1,0-0.2,0.1-0.2c0.1-0.1,0.1-0.1,0.2-0.1h1c0.1,0,0.1,0,0.2,0.1
		c0.1,0.1,0.1,0.1,0.1,0.2v4.1l2-1.9c0,0,0.1,0,0.1-0.1c0.1,0,0.1-0.1,0.1-0.1s0.1,0,0.2,0h1.1c0.1,0,0.1,0,0.2,0.1
		c0,0,0.1,0.1,0.1,0.2c0,0.1,0,0.1-0.1,0.2l-2.4,2.3l2.7,3c0.1,0.1,0.1,0.1,0.1,0.2c0,0.1,0,0.1-0.1,0.2c0,0-0.1,0.1-0.2,0.1h-1.2
		c-0.1,0-0.2,0-0.2,0s-0.1-0.1-0.2-0.2l-2.3-2.4v2.3c0,0.1,0,0.1-0.1,0.2c-0.1,0.1-0.1,0.1-0.2,0.1h-1C34.1,10.7,34.1,10.7,34,10.6z
		"/>
	<path d="M42.8,11.6c0,0-0.1-0.1-0.1-0.2c0,0,0-0.1,0-0.1l4.1-9.8c0-0.1,0.1-0.1,0.1-0.2c0.1-0.1,0.1-0.1,0.2-0.1H48
		c0.1,0,0.1,0,0.2,0.1c0,0,0.1,0.1,0.1,0.2c0,0,0,0.1,0,0.1l-4.1,9.8c0,0.1-0.1,0.1-0.1,0.2c-0.1,0.1-0.1,0.1-0.2,0.1h-0.8
		C42.9,11.7,42.8,11.7,42.8,11.6z"/>
	<path d="M49.3,10c0,0-0.1-0.1-0.1-0.2V8.9c0-0.1,0-0.2,0.1-0.2c0-0.1,0.1-0.1,0.2-0.2l2.9-1.9l-2.9-1.9c-0.1-0.1-0.2-0.1-0.2-0.2
		s-0.1-0.1-0.1-0.2V3.2c0-0.1,0-0.1,0.1-0.2s0.1-0.1,0.2-0.1c0.1,0,0.2,0,0.2,0.1l4.1,2.8C54,5.9,54,6,54.1,6.1
		c0.1,0.1,0.1,0.2,0.1,0.3v0.3c0,0.1,0,0.2-0.1,0.3s-0.1,0.2-0.3,0.2l-4.1,2.8C49.7,10,49.6,10,49.5,10C49.5,10,49.4,10,49.3,10z"/>
</g>
</svg>
