<?xml version="1.0" encoding="utf-8"?>
<!-- Generator: Adobe Illustrator 27.9.0, SVG Export Plug-In . SVG Version: 6.00 Build 0)  -->
<svg version="1.1" id="Layer_1" xmlns="http://www.w3.org/2000/svg" xmlns:xlink="http://www.w3.org/1999/xlink" x="0px" y="0px"
	 viewBox="0 0 278.4 77.5" style="enable-background:new 0 0 278.4 77.5;" xml:space="preserve">
<style type="text/css">
	.st0{fill:#00E7FF;}
	.st1{fill:#66D5B0;}
</style>
<path class="st0" d="M29.6,30.3L19.3,0.6h8.5l5.7,18.3l5.7-18.3h8.5L37.3,30.3v21.4h-7.7C29.6,51.7,29.6,30.3,29.6,30.3z"/>
<path class="st0" d="M63.1,0c6.7,0,12.2,5.5,12.2,12.2V40c0,6.7-5.5,12.2-12.2,12.2c-3.2,0-6.4-1.3-8.6-3.6
	c-2.3-2.3-3.6-5.4-3.5-8.6V12.2C51,5.5,56.4,0,63.1,0z M67.3,12c0-2.4-2-4.4-4.5-4.4c-1.2,0-2.3,0.5-3.1,1.3
	c-0.9,0.8-1.3,1.9-1.3,3.1v28c0,1.2,0.5,2.3,1.3,3.1c1.7,1.7,4.5,1.7,6.3,0c0.8-0.8,1.3-1.9,1.3-3.1C67.3,40,67.3,12,67.3,12z"/>
<path class="st0" d="M94.2,52.3c-6.7,0-12.2-5.4-12.2-12.2l0,0V12.3c0-6.7,5.5-12.2,12.2-12.2s12.2,5.5,12.2,12.2l0,0v5.8h-8v-6
	c0-2.4-2-4.4-4.4-4.4c-1.2,0-2.3,0.5-3.1,1.3c-0.8,0.8-1.3,2-1.3,3.1V40c0,2.4,2,4.4,4.5,4.4c1.1,0,2.2-0.5,3-1.3
	c0.9-0.8,1.3-1.9,1.3-3.1V30h-4.3v-7.8h12.2V40c0.1,3.2-1.2,6.4-3.6,8.6C100.5,51.1,97.4,52.3,94.2,52.3z"/>
<path class="st0" d="M120.7,51.7H113v-51h7.7V51.7z"/>
<path class="st1" d="M160.6,39c0.1,3.3-0.8,6.5-2.8,9.1c-1.3,1.8-3.2,3-5.3,3.6c-1.4,0.4-2.8,0.6-4.3,0.6c-2.7,0.1-5.3-0.7-7.5-2.2
	c-1.7-1.3-3.1-3-3.9-5c-1-2.3-1.6-4.7-1.7-7.2l7.3-0.5c0.3,3,1.1,5.1,2.4,6.5c0.8,1,2,1.5,3.2,1.4c1.7-0.1,3.2-1,4-2.5
	c0.6-1,0.9-2.2,0.8-3.4c-0.1-2.4-1.2-4.7-2.9-6.3l-6.9-6.5c-2.1-1.9-3.9-4.2-5.4-6.6c-1.1-2.2-1.7-4.7-1.7-7.2
	c0-4.7,1.6-8.2,4.7-10.5c2.1-1.5,4.6-2.3,7.2-2.2c2.5-0.1,4.9,0.6,7,1.8c1.6,1,2.8,2.4,3.7,4c1,1.8,1.5,3.8,1.7,5.9l-7.3,1.3
	c-0.1-1.8-0.7-3.5-1.8-4.9c-0.8-0.9-1.9-1.3-3-1.3c-1.3,0-2.6,0.7-3.2,1.9c-0.6,1.1-0.9,2.4-0.9,3.7c0.1,2.7,1.2,5.2,3,7.1
	c1,1.2,2.2,2.3,3.4,3.3c1.8,1.5,3,2.5,3.5,3.1c1.7,1.7,3.2,3.6,4.4,5.6c0.4,0.8,0.8,1.6,1.2,2.4C160.1,35.6,160.5,37.3,160.6,39z"/>
<path class="st1" d="M179.1,0.7c3.4-0.2,6.6,1.1,9,3.5c2.1,2.4,3.2,5.5,3.1,8.6v7.4c0.1,3.2-1.2,6.4-3.5,8.6
	c-2.2,2.4-5.3,3.7-8.6,3.6h-4.4v19.2H167v-51L179.1,0.7z M183.7,13c0.1-1.2-0.4-2.4-1.2-3.2c-0.9-0.8-2-1.3-3.2-1.2h-4.6v16.3h4.6
	c1.2,0,2.3-0.4,3.1-1.3c0.8-0.8,1.3-2,1.3-3.1L183.7,13L183.7,13z"/>
<path class="st1" d="M202.2,39.9l-1.9,11.7h-8l8.7-51h10.6l8.6,51h-8.1l-1.8-11.7H202.2z M206.2,12.3l-2.8,20.1h5.7L206.2,12.3z"/>
<path class="st1" d="M237.7,52.3c-6.7,0-12.2-5.4-12.2-12.1c0,0,0,0,0-0.1V12.3c-0.2-6.7,5.1-12.4,11.8-12.5s12.4,5.1,12.5,11.8
	c0,0.2,0,0.5,0,0.7v5.8h-8v-6c0-2.4-2-4.4-4.4-4.4c-1.2,0-2.3,0.4-3.1,1.3c-0.8,0.8-1.3,2-1.2,3.1V40c0,2.4,2,4.4,4.4,4.4l0,0
	c1.2,0,2.3-0.4,3.1-1.3c0.8-0.8,1.3-1.9,1.3-3.1v-7h8v7.1C249.9,46.9,244.4,52.3,237.7,52.3L237.7,52.3z"/>
<path class="st1" d="M256.1,51.7v-51H278v7.7h-14.2v13.9h10.4V30h-10.4v13.9H278v7.7L256.1,51.7z"/>
<g>
	<path class="st1" d="M9.3,41.3H1c-0.6,0-1,0.4-1,1v28.2c0,3.9,3.1,7,7,7h113.3c0.6,0,1-0.4,1-1v-8.3H9.3V41.3z"/>
	<path class="st1" d="M73.3,41.3c0.6,0,1,0.4,1,1v-1H73.3z"/>
</g>
<g>
	<path class="st1" d="M9.3,41.3H1c-0.6,0-1,0.4-1,1v28.2c0,3.9,3.1,7,7,7h113.3c0.6,0,1-0.4,1-1v-8.3H9.3V41.3z"/>
	<path class="st1" d="M73.3,41.3c0.6,0,1,0.4,1,1v-1H73.3z"/>
</g>
</svg>
