<?xml version="1.0" encoding="utf-8"?>
<!-- Generator: Adobe Illustrator 27.9.0, SVG Export Plug-In . SVG Version: 6.00 Build 0)  -->
<svg version="1.1" id="Layer_1" xmlns="http://www.w3.org/2000/svg" xmlns:xlink="http://www.w3.org/1999/xlink" x="0px" y="0px"
	 viewBox="0 0 75 75" style="enable-background:new 0 0 75 75;" xml:space="preserve">
<style type="text/css">
	.st0{fill:#00E7FF;}
	.st1{fill:#2BA4AA;}
	.st2{fill:#FFFFFF;}
</style>
<path class="st0" d="M17.9,41.9L7.6,12.2h8.5l5.7,18.3l5.7-18.3H36L25.6,41.9v21.4h-7.7C17.9,63.3,17.9,41.9,17.9,41.9z"/>
<path class="st1" d="M66.9,50.6c0.1,3.3-0.8,6.5-2.8,9.1c-1.3,1.8-3.2,3-5.3,3.6c-1.4,0.4-2.8,0.6-4.3,0.6c-2.7,0.1-5.3-0.7-7.5-2.2
	c-1.7-1.3-3.1-3-3.9-5c-1-2.3-1.6-4.7-1.7-7.2l7.3-0.5c0.3,3,1.1,5.1,2.4,6.5c0.8,1,2,1.5,3.2,1.4c1.7-0.1,3.2-1,4-2.5
	c0.6-1,0.9-2.2,0.8-3.4c-0.1-2.4-1.2-4.7-2.9-6.3l-6.9-6.5c-2.1-1.9-3.9-4.2-5.4-6.6c-1.1-2.2-1.7-4.7-1.7-7.2
	c0-4.7,1.6-8.2,4.7-10.5c2.1-1.5,4.6-2.3,7.2-2.2c2.5-0.1,4.9,0.6,7,1.8c1.6,1,2.8,2.4,3.7,4c1,1.8,1.5,3.8,1.7,5.9l-7.3,1.3
	c-0.1-1.8-0.7-3.5-1.8-4.9c-0.8-0.9-1.9-1.3-3-1.3c-1.3,0-2.6,0.7-3.2,1.9c-0.6,1.1-0.9,2.4-0.9,3.7c0.1,2.7,1.2,5.2,3,7.1
	c1,1.2,2.2,2.3,3.4,3.3c1.8,1.5,3,2.5,3.5,3.1c1.7,1.7,3.2,3.6,4.4,5.6c0.4,0.8,0.8,1.6,1.2,2.4C66.4,47.2,66.8,48.9,66.9,50.6z"/>
<g>
	<path class="st2" d="M9.9,38.2H1.7c-0.6,0-1,0.4-1,1v28.2c0,3.9,3.1,7,7,7H73c0.6,0,1-0.4,1-1v-8.3H9.9V38.2z"/>
	<path class="st2" d="M74,38.2c0.6,0,1,0.4,1,1v-1H74z"/>
</g>
</svg>
